<svg xmlns="http://www.w3.org/2000/svg" width="256" height="256" fill="none"><rect width="254" height="254" x="1" y="1" fill="url(#a)" stroke="#363F72" stroke-width="2" rx="65"/><g filter="url(#b)"><mask id="d" width="176.183" height="129.167" x="39.908" y="63.417" fill="#000" maskUnits="userSpaceOnUse"><path fill="#fff" d="M39.908 63.417h176.183v129.167H39.908z"/><path fill-rule="evenodd" d="M59.782 82.978c-9.732 1.195-16.68 10.03-15.492 19.702l2.153 17.535c.296 2.411 2.569 4.051 4.955 4.564 5.402 1.145 9.726 5.592 10.432 11.346.707 5.753-2.413 11.115-7.378 13.532-2.19 1.075-3.999 3.216-3.703 5.628l2.153 17.535c1.188 9.671 10.066 16.563 19.799 15.368l123.517-15.166c9.732-1.195 16.679-10.03 15.492-19.702l-2.153-17.535c-.296-2.411-2.569-4.051-4.955-4.564-5.402-1.145-9.726-5.592-10.432-11.346-.707-5.753 2.413-11.115 7.378-13.532 2.191-1.075 3.999-3.216 3.703-5.628l-2.153-17.535c-1.188-9.671-10.066-16.563-19.799-15.368L59.782 82.978Zm106.975 24.244c.276 2.247-1.278 4.288-3.471 4.557-2.193.269-4.194-1.335-4.47-3.582-.276-2.248 1.278-4.288 3.471-4.557 2.192-.269 4.194 1.334 4.47 3.582Zm1.998 16.278c.276 2.247-1.277 4.287-3.47 4.557-2.193.269-4.194-1.335-4.47-3.582-.276-2.248 1.278-4.288 3.47-4.557 2.193-.269 4.194 1.334 4.47 3.582Zm-1.472 20.834c2.193-.269 3.747-2.309 3.471-4.557-.276-2.247-2.277-3.851-4.47-3.582-2.193.27-3.746 2.31-3.47 4.557.276 2.248 2.277 3.852 4.469 3.582Z" clip-rule="evenodd"/></mask><path fill="url(#c)" fill-rule="evenodd" d="M59.782 82.978c-9.732 1.195-16.68 10.03-15.492 19.702l2.153 17.535c.296 2.411 2.569 4.051 4.955 4.564 5.402 1.145 9.726 5.592 10.432 11.346.707 5.753-2.413 11.115-7.378 13.532-2.19 1.075-3.999 3.216-3.703 5.628l2.153 17.535c1.188 9.671 10.066 16.563 19.799 15.368l123.517-15.166c9.732-1.195 16.679-10.03 15.492-19.702l-2.153-17.535c-.296-2.411-2.569-4.051-4.955-4.564-5.402-1.145-9.726-5.592-10.432-11.346-.707-5.753 2.413-11.115 7.378-13.532 2.191-1.075 3.999-3.216 3.703-5.628l-2.153-17.535c-1.188-9.671-10.066-16.563-19.799-15.368L59.782 82.978Zm106.975 24.244c.276 2.247-1.278 4.288-3.471 4.557-2.193.269-4.194-1.335-4.47-3.582-.276-2.248 1.278-4.288 3.471-4.557 2.192-.269 4.194 1.334 4.47 3.582Zm1.998 16.278c.276 2.247-1.277 4.287-3.47 4.557-2.193.269-4.194-1.335-4.47-3.582-.276-2.248 1.278-4.288 3.47-4.557 2.193-.269 4.194 1.334 4.47 3.582Zm-1.472 20.834c2.193-.269 3.747-2.309 3.471-4.557-.276-2.247-2.277-3.851-4.47-3.582-2.193.27-3.746 2.31-3.47 4.557.276 2.248 2.277 3.852 4.469 3.582Z" clip-rule="evenodd"/><path fill="#3E4784" d="m51.398 124.779-.421 1.955.006.002.415-1.957Zm3.054 24.878-.875-1.798-.006.003.881 1.795Zm150.15-18.436.421-1.955-.006-.002-.415 1.957Zm-3.054-24.878.875 1.798.006-.003-.881-1.795Zm-155.273-3.907c-1.051-8.564 5.103-16.411 13.751-17.473l-.487-3.97c-10.817 1.328-18.557 11.15-17.234 21.93l3.97-.487Zm2.153 17.535-2.153-17.535-3.97.487 2.153 17.535 3.97-.487Zm3.39 2.853c-1.971-.424-3.241-1.646-3.39-2.853l-3.97.487c.444 3.615 3.719 5.674 6.519 6.276l.842-3.91Zm11.997 13.057c-.814-6.632-5.796-11.743-12.003-13.058l-.829 3.913c4.597.974 8.264 4.757 8.862 9.632l3.97-.487Zm-8.487 15.574c5.704-2.778 9.302-8.942 8.487-15.574l-3.97.487c.599 4.876-2.044 9.434-6.268 11.491l1.75 3.596Zm-2.594 3.586c-.148-1.208.789-2.7 2.6-3.589l-1.763-3.59c-2.571 1.262-5.25 4.052-4.807 7.666l3.97-.487Zm2.154 17.535-2.154-17.535-3.97.487 2.153 17.535 3.97-.487Zm17.569 13.627c-8.648 1.062-16.518-5.064-17.57-13.627l-3.97.487c1.324 10.78 11.21 18.438 22.027 17.11l-.487-3.97Zm123.517-15.166L72.457 186.203l.487 3.97 123.517-15.166-.487-3.97Zm13.751-17.473c1.051 8.564-5.103 16.411-13.751 17.473l.487 3.97c10.817-1.328 18.557-11.151 17.234-21.93l-3.97.487Zm-2.153-17.535 2.153 17.535 3.97-.487-2.153-17.535-3.97.487Zm-3.39-2.853c1.971.425 3.241 1.646 3.39 2.853l3.97-.487c-.444-3.615-3.719-5.674-6.519-6.276l-.841 3.91Zm-11.997-13.057c.814 6.632 5.796 11.743 12.003 13.058l.829-3.913c-4.597-.974-8.264-4.757-8.862-9.632l-3.97.487Zm8.487-15.574c-5.704 2.778-9.302 8.942-8.487 15.574l3.97-.487c-.599-4.876 2.044-9.434 6.268-11.491l-1.751-3.596Zm2.594-3.586c.148 1.208-.789 2.7-2.6 3.589l1.763 3.59c2.571-1.262 5.251-4.051 4.807-7.666l-3.97.487Zm-2.153-17.535 2.153 17.535 3.97-.487-2.153-17.535-3.97.487Zm-17.57-13.627c8.648-1.062 16.518 5.064 17.57 13.627l3.97-.487c-1.324-10.78-11.21-18.438-22.027-17.11l.487 3.97ZM60.026 84.963l123.517-15.166-.487-3.97L59.539 80.993l.487 3.97Zm103.504 28.801c3.335-.41 5.617-3.489 5.212-6.786l-3.97.488c.147 1.197-.679 2.199-1.73 2.328l.488 3.97Zm-6.699-5.323c.405 3.297 3.364 5.732 6.699 5.323l-.488-3.97c-1.05.129-2.094-.643-2.241-1.841l-3.97.488Zm5.212-6.786c-3.335.409-5.617 3.488-5.212 6.786l3.97-.488c-.147-1.198.679-2.199 1.73-2.328l-.488-3.97Zm6.699 5.323c-.405-3.297-3.364-5.733-6.699-5.323l.488 3.97c1.05-.129 2.094.643 2.241 1.841l3.97-.488Zm-3.213 23.064c3.335-.41 5.616-3.489 5.211-6.786l-3.97.487c.147 1.198-.679 2.2-1.729 2.329l.488 3.97Zm-6.699-5.324c.405 3.298 3.364 5.733 6.699 5.324l-.488-3.97c-1.05.129-2.094-.643-2.241-1.841l-3.97.487Zm5.212-6.785c-3.335.409-5.617 3.488-5.212 6.785l3.97-.487c-.147-1.198.679-2.199 1.729-2.328l-.487-3.97Zm6.698 5.323c-.404-3.297-3.363-5.733-6.698-5.323l.487 3.97c1.051-.129 2.094.643 2.241 1.84l3.97-.487Zm-1.971 16.765c.147 1.198-.679 2.199-1.729 2.328l.487 3.97c3.335-.409 5.617-3.488 5.212-6.785l-3.97.487Zm-2.241-1.841c1.05-.128 2.094.643 2.241 1.841l3.97-.487c-.405-3.298-3.364-5.733-6.699-5.324l.488 3.97Zm-1.729 2.329c-.147-1.198.678-2.2 1.729-2.329l-.488-3.97c-3.335.41-5.616 3.489-5.211 6.786l3.97-.487Zm2.241 1.84c-1.051.129-2.094-.643-2.241-1.84l-3.97.487c.404 3.297 3.363 5.733 6.698 5.323l-.487-3.97Z" mask="url(#d)"/></g><defs><linearGradient id="a" x1="0" x2="5.668" y1="0" y2="255.874" gradientUnits="userSpaceOnUse"><stop stop-color="#4E5BA6"/><stop offset="1" stop-color="#3E4784"/></linearGradient><linearGradient id="c" x1="55.055" x2="42.137" y1="190.355" y2="85.145" gradientUnits="userSpaceOnUse"><stop stop-color="#B3B8DB"/><stop offset="1" stop-color="#EAECF5"/></linearGradient><filter id="b" width="179.684" height="132.645" x="38.158" y="63.677" color-interpolation-filters="sRGB" filterUnits="userSpaceOnUse"><feFlood flood-opacity="0" result="BackgroundImageFix"/><feColorMatrix in="SourceAlpha" result="hardAlpha" values="0 0 0 0 0 0 0 0 0 0 0 0 0 0 0 0 0 0 127 0"/><feOffset dy="2"/><feGaussianBlur stdDeviation="2"/><feComposite in2="hardAlpha" operator="out"/><feColorMatrix values="0 0 0 0 0.243137 0 0 0 0 0.278431 0 0 0 0 0.517647 0 0 0 0.5 0"/><feBlend in2="BackgroundImageFix" result="effect1_dropShadow_39_10"/><feBlend in="SourceGraphic" in2="effect1_dropShadow_39_10" result="shape"/></filter></defs></svg>
