<svg xmlns="http://www.w3.org/2000/svg" width="256" height="256" fill="none"><rect width="254" height="254" x="1" y="1" fill="url(#a)" stroke="#363F72" stroke-width="2" rx="65"/><g filter="url(#b)"><path fill="url(#c)" d="M153.5 128c0 5.897-.319 11.581-.877 17h-49.246c-.585-5.419-.877-11.103-.877-17s.319-11.581.877-17h49.246c.585 5.419.877 11.103.877 17Zm7.65-17h32.698A67.755 67.755 0 0 1 196 128c0 5.87-.744 11.555-2.152 17H161.15c.558-5.472.85-11.156.85-17 0-5.844-.292-11.528-.85-17Zm29.909-8.5h-30.998c-2.656-16.973-7.916-31.184-14.689-40.269 20.798 5.499 37.719 20.586 45.661 40.269h.026Zm-39.604 0h-46.91c1.621-9.669 4.117-18.222 7.172-25.155 2.789-6.268 5.897-10.81 8.899-13.68C123.591 60.85 126.061 60 128 60s4.409.85 7.384 3.666c3.002 2.868 6.11 7.41 8.899 13.68 3.081 6.906 5.578 15.459 7.172 25.154Zm-55.516 0H64.941c7.968-19.683 24.862-34.77 45.687-40.269-6.773 9.085-12.033 23.296-14.689 40.269ZM62.152 111H94.85a167.826 167.826 0 0 0-.85 17c0 5.844.292 11.528.85 17H62.152A67.764 67.764 0 0 1 60 128c0-5.87.744-11.555 2.152-17Zm49.565 67.628c-3.081-6.906-5.551-15.459-7.172-25.128h46.91c-1.621 9.669-4.118 18.222-7.172 25.128-2.789 6.269-5.897 10.811-8.899 13.68C132.409 195.15 129.939 196 128 196s-4.409-.85-7.384-3.666c-3.002-2.868-6.11-7.411-8.899-13.679v-.027ZM95.939 153.5c2.656 16.973 7.916 31.184 14.689 40.269-20.825-5.499-37.719-20.586-45.687-40.269h30.998Zm95.12 0c-7.968 19.683-24.862 34.77-45.661 40.269 6.774-9.085 12.007-23.296 14.689-40.269h30.972Z"/><path stroke="#3E4784" stroke-width="2" d="M152.623 146h.903l.092-.898c.561-5.451.882-11.169.882-17.102 0-5.93-.294-11.65-.882-17.107l-.097-.893h-51.047l-.092.898A167.119 167.119 0 0 0 101.5 128c0 5.93.294 11.65.882 17.107l.097.893h50.144Zm8.527-36h-1.107l.112 1.101c.554 5.438.845 11.088.845 16.899 0 5.811-.291 11.461-.845 16.899l-.112 1.101h34.58l.194-.75A68.797 68.797 0 0 0 197 128c0-5.955-.755-11.724-2.183-17.25l-.194-.75H161.15Zm-2.077-7.345.132.845h31.854v-1.011l.901-.363c-8.059-19.974-25.227-35.282-46.333-40.862l-2.769-.732 1.712 2.297c6.642 8.907 11.861 22.943 14.503 39.826Zm-7.618.845h1.177l-.191-1.162c-1.604-9.763-4.122-18.4-7.245-25.4-2.823-6.346-5.997-11.01-9.121-13.995l-.003-.004C132.967 60.001 130.263 59 128 59c-2.263 0-4.967 1.001-8.072 3.94l-.003.003c-3.124 2.985-6.298 7.65-9.121 13.996l-.002.003c-3.094 7.022-5.611 15.658-7.243 25.393l-.195 1.165h48.091Zm-55.516 0h.856l.132-.845c2.642-16.883 7.861-30.919 14.503-39.826l1.711-2.296-2.768.731c-21.133 5.58-38.273 20.889-46.36 40.861l-.556 1.375h32.482ZM62.152 110h-.775l-.194.75A68.76 68.76 0 0 0 59 128a68.76 68.76 0 0 0 2.183 17.25l.194.75h34.58l-.112-1.101A166.836 166.836 0 0 1 95 128c0-5.811.29-11.461.845-16.899l.112-1.101H62.152Zm42.393 42.5h-1.181l.195 1.165c1.616 9.643 4.076 18.21 7.158 25.175v.027l.087.194c2.823 6.347 5.997 11.011 9.121 13.996l.003.004c3.105 2.938 5.809 3.939 8.072 3.939 2.264 0 4.97-1.003 8.075-3.969 3.124-2.986 6.298-7.65 9.121-13.996l.001-.002c3.095-6.997 5.613-15.633 7.244-25.368l.195-1.165h-48.091Zm-7.618.845-.132-.845H63.457l.557 1.375c8.086 19.972 25.226 35.281 46.359 40.861l2.768.731-1.711-2.296c-6.642-8.907-11.86-22.943-14.503-39.826Zm95.059.53.557-1.375h-33.31l-.133.844c-2.669 16.885-7.862 30.92-14.503 39.827l-1.713 2.297 2.77-.732c21.106-5.58 38.247-20.889 46.332-40.861Z"/></g><defs><linearGradient id="a" x1="0" x2="5.668" y1="0" y2="255.874" gradientUnits="userSpaceOnUse"><stop stop-color="#4E5BA6"/><stop offset="1" stop-color="#3E4784"/></linearGradient><linearGradient id="c" x1="60" x2="60" y1="196" y2="60" gradientUnits="userSpaceOnUse"><stop stop-color="#B3B8DB"/><stop offset="1" stop-color="#EAECF5"/></linearGradient><filter id="b" width="148" height="148" x="54" y="56" color-interpolation-filters="sRGB" filterUnits="userSpaceOnUse"><feFlood flood-opacity="0" result="BackgroundImageFix"/><feColorMatrix in="SourceAlpha" result="hardAlpha" values="0 0 0 0 0 0 0 0 0 0 0 0 0 0 0 0 0 0 127 0"/><feOffset dy="2"/><feGaussianBlur stdDeviation="2"/><feComposite in2="hardAlpha" operator="out"/><feColorMatrix values="0 0 0 0 0.243137 0 0 0 0 0.278431 0 0 0 0 0.517647 0 0 0 0.5 0"/><feBlend in2="BackgroundImageFix" result="effect1_dropShadow_39_4"/><feBlend in="SourceGraphic" in2="effect1_dropShadow_39_4" result="shape"/></filter></defs></svg>
