<svg xmlns="http://www.w3.org/2000/svg" width="256" height="256" fill="none"><rect width="254" height="254" x="1" y="1" fill="url(#a)" stroke="#121926" stroke-width="2" rx="65"/><path fill="url(#b)" stroke="#4E5BA6" stroke-width="2" d="M58.231 105.168c-.806-7.672 4.824-14.584 12.57-15.399L176 78.713c7.747-.815 14.691 4.776 15.497 12.448l1.568 14.918c.152 1.447-.974 2.921-2.66 3.712-4.627 2.153-7.604 7.055-7.043 12.39.56 5.335 4.492 9.511 9.466 10.655 1.813.424 3.221 1.631 3.373 3.078l1.568 14.918c.806 7.672-4.824 14.584-12.571 15.399L80 177.287c-7.747.815-14.69-4.776-15.497-12.448l-1.568-14.918c-.152-1.447.974-2.921 2.66-3.712 4.627-2.153 7.604-7.055 7.043-12.39-.56-5.335-4.492-9.511-9.466-10.655-1.813-.424-3.22-1.631-3.373-3.078l-1.568-14.918Z"/><path fill="#293056" d="M156.975 110.391c.203 1.93-1.21 3.662-3.155 3.866-1.945.205-3.687-1.195-3.89-3.126-.203-1.931 1.21-3.662 3.155-3.867 1.945-.204 3.687 1.196 3.89 3.127Zm1.47 13.985c.203 1.931-1.21 3.662-3.155 3.867-1.945.204-3.687-1.196-3.89-3.127-.203-1.931 1.21-3.662 3.155-3.866 1.945-.205 3.687 1.195 3.89 3.126Zm1.47 13.985c.203 1.931-1.21 3.662-3.155 3.867-1.946.204-3.687-1.195-3.89-3.126-.203-1.931 1.21-3.662 3.155-3.867 1.945-.204 3.687 1.195 3.89 3.126Z"/><defs><linearGradient id="a" x1="0" x2="0" y1="256" y2="0" gradientUnits="userSpaceOnUse"><stop stop-color="#121926"/><stop offset="1" stop-color="#202939"/></linearGradient><linearGradient id="b" x1="65.076" x2="190.211" y1="179.861" y2="75.286" gradientUnits="userSpaceOnUse"><stop stop-color="#717BBC"/><stop offset="1" stop-color="#3E4784"/></linearGradient></defs></svg>
