<svg xmlns="http://www.w3.org/2000/svg" width="256" height="256" fill="none"><rect width="254" height="254" x="1" y="1" fill="url(#a)" stroke="#121926" stroke-width="2" rx="65"/><path fill="url(#b)" stroke="#4E5BA6" stroke-width="2" d="M109.571 74.571c0-7.492 6.079-13.571 13.572-13.571h9.714c7.493 0 13.572 6.08 13.572 13.571V181.43c0 7.492-6.079 13.571-13.572 13.571h-9.714c-7.493 0-13.572-6.079-13.572-13.571V74.571ZM61 132.857c0-7.492 6.08-13.571 13.571-13.571h9.715c7.492 0 13.571 6.079 13.571 13.571v48.572c0 7.492-6.079 13.571-13.571 13.571H74.57C67.08 195 61 188.921 61 181.429v-48.572Zm110.714-52.428h9.715C188.921 80.429 195 86.508 195 94v87.429c0 7.492-6.079 13.571-13.571 13.571h-9.715c-7.492 0-13.571-6.079-13.571-13.571V94c0-7.492 6.079-13.571 13.571-13.571Z"/><defs><linearGradient id="a" x1="0" x2="0" y1="256" y2="0" gradientUnits="userSpaceOnUse"><stop stop-color="#121926"/><stop offset="1" stop-color="#202939"/></linearGradient><linearGradient id="b" x1="60" x2="224.041" y1="196" y2="123.093" gradientUnits="userSpaceOnUse"><stop stop-color="#717BBC"/><stop offset="1" stop-color="#3E4784"/></linearGradient></defs></svg>
