<svg xmlns="http://www.w3.org/2000/svg" width="256" height="256" fill="none"><rect width="254" height="254" x="1" y="1" fill="url(#a)" stroke="#363F72" stroke-width="2" rx="65"/><g filter="url(#b)"><path fill="url(#c)" d="M108.571 74.571c0-8.044 6.527-14.571 14.572-14.571h9.714c8.045 0 14.572 6.527 14.572 14.571V181.43c0 8.044-6.527 14.571-14.572 14.571h-9.714c-8.045 0-14.572-6.527-14.572-14.571V74.571ZM60 132.857c0-8.044 6.527-14.571 14.571-14.571h9.715c8.044 0 14.571 6.527 14.571 14.571v48.572c0 8.044-6.527 14.571-14.571 14.571H74.57C66.527 196 60 189.473 60 181.429v-48.572Zm111.714-53.428h9.715C189.473 79.429 196 85.955 196 94v87.429c0 8.044-6.527 14.571-14.571 14.571h-9.715c-8.044 0-14.571-6.527-14.571-14.571V94c0-8.045 6.527-14.571 14.571-14.571Z"/><path stroke="#3E4784" stroke-width="2" d="M123.143 59c-8.597 0-15.572 6.975-15.572 15.571V181.43c0 8.596 6.975 15.571 15.572 15.571h9.714c8.597 0 15.572-6.975 15.572-15.571V74.571c0-8.596-6.975-15.571-15.572-15.571h-9.714Zm-48.572 58.286c-8.596 0-15.571 6.974-15.571 15.571v48.572C59 190.025 65.975 197 74.571 197h9.715c8.597 0 15.571-6.975 15.571-15.571v-48.572c0-8.597-6.974-15.571-15.571-15.571H74.57ZM181.43 78.429h-9.715c-8.597 0-15.571 6.974-15.571 15.571v87.429c0 8.596 6.974 15.571 15.571 15.571h9.715c8.596 0 15.571-6.975 15.571-15.571V94c0-8.597-6.975-15.571-15.571-15.571Z"/></g><defs><linearGradient id="a" x1="0" x2="5.668" y1="0" y2="255.874" gradientUnits="userSpaceOnUse"><stop stop-color="#4E5BA6"/><stop offset="1" stop-color="#3E4784"/></linearGradient><linearGradient id="c" x1="60" x2="60" y1="196" y2="60" gradientUnits="userSpaceOnUse"><stop stop-color="#B3B8DB"/><stop offset="1" stop-color="#EAECF5"/></linearGradient><filter id="b" width="148" height="148" x="54" y="56" color-interpolation-filters="sRGB" filterUnits="userSpaceOnUse"><feFlood flood-opacity="0" result="BackgroundImageFix"/><feColorMatrix in="SourceAlpha" result="hardAlpha" values="0 0 0 0 0 0 0 0 0 0 0 0 0 0 0 0 0 0 127 0"/><feOffset dy="2"/><feGaussianBlur stdDeviation="2"/><feComposite in2="hardAlpha" operator="out"/><feColorMatrix values="0 0 0 0 0.243137 0 0 0 0 0.278431 0 0 0 0 0.517647 0 0 0 0.5 0"/><feBlend in2="BackgroundImageFix" result="effect1_dropShadow_39_7"/><feBlend in="SourceGraphic" in2="effect1_dropShadow_39_7" result="shape"/></filter></defs></svg>
