<svg xmlns="http://www.w3.org/2000/svg" width="256" height="256" fill="none"><rect width="254" height="254" x="1" y="1" fill="url(#a)" stroke="#121926" stroke-width="2" rx="65"/><path fill="url(#b)" stroke="#4E5BA6" stroke-width="2" d="m69.354 133.287.208-.555-.387-.449c-5.153-5.978-8.173-13.282-8.173-21.158C61.002 91.33 80.17 75 104.204 75c24.035 0 43.201 16.33 43.201 36.125s-19.166 36.125-43.201 36.125c-7.967 0-15.403-1.801-21.787-4.939l-.458-.225-.451.239a46.508 46.508 0 0 1-5.26 2.352c-3.82 1.43-8.372 2.573-12.846 2.573-1.02 0-1.948-.682-2.283-1.664-.32-.939.023-2.01.86-2.628l.058-.043.016-.017.055-.038c.056-.041.116-.088.174-.134.235-.186.57-.476.953-.814l.006-.005.006-.005a25.215 25.215 0 0 0 2.94-3.138c1.213-1.534 2.378-3.374 3.167-5.477Zm86.852-22.162v-.416l-.024-.024a41.68 41.68 0 0 0-.053-1.771c21.968 1.819 38.857 17.357 38.857 35.94 0 7.898-3.02 15.201-8.172 21.157l-.39.451.211.557c.788 2.078 1.951 3.938 3.167 5.475a25.27 25.27 0 0 0 2.934 3.132c.41.384.753.656.968.827l.002.002c.083.066.158.116.2.144l.048.048.062.045a2.38 2.38 0 0 1 .869 2.661 2.399 2.399 0 0 1-2.278 1.647c-4.474 0-9.026-1.143-12.846-2.573a46.197 46.197 0 0 1-5.238-2.352l-.45-.239-.458.225c-6.407 3.138-13.843 4.939-21.81 4.939-19.448 0-35.779-10.733-41.241-25.338 24.748-2.653 45.642-20.594 45.642-44.537Zm37.651 65.425.002.002-.002-.002Z"/><defs><linearGradient id="a" x1="0" x2="0" y1="256" y2="0" gradientUnits="userSpaceOnUse"><stop stop-color="#121926"/><stop offset="1" stop-color="#202939"/></linearGradient><linearGradient id="b" x1="60" x2="209.589" y1="182" y2="98.28" gradientUnits="userSpaceOnUse"><stop stop-color="#717BBC"/><stop offset="1" stop-color="#3E4784"/></linearGradient></defs></svg>
