<svg xmlns="http://www.w3.org/2000/svg" width="300" height="180" fill="none"><g clip-path="url(#a)"><g clip-path="url(#b)"><rect width="300" height="180" fill="#EFF4FF" rx="12"/><mask id="d" width="300" height="300" x="0" y="0" maskUnits="userSpaceOnUse" style="mask-type:alpha"><path fill="url(#c)" d="M0 0h300v300H0z"/></mask><g mask="url(#d)"><path stroke="#BFD4FE" d="m60.5 0-30 180m90-180-30 180m90-180-30 180m90-180-30 180m90-180-30 180M90.5 0l-30 180m90-180-30 180m90-180-30 180m90-180-30 180M0-.5l300 30M0 59.5l300 30m-300 30 300 30M0 29.5l300 30M0 89.5l300 30M30.5 0 .5 180m0-30.5 300 30"/></g></g><rect width="299" height="179" x=".5" y=".5" stroke="#DBE6FE" rx="11.5"/><g filter="url(#e)"><rect width="165" height="51" x="68" y="65" fill="#fff" rx="9"/><rect width="166" height="52" x="67.5" y="64.5" stroke="#BFD4FE" rx="9.5"/></g><path fill="#3D6EF6" d="M86 78.6a4.9 4.9 0 1 0 4.2 7.3 4.9 4.9 0 0 0-4.2-7.3Zm0 10.9a6 6 0 0 1-5.2-3 6 6 0 0 1 10.4-6 6 6 0 0 1 0 6 6 6 0 0 1-5.2 3Zm0-9c.3 0 .6.3.6.6v2.6c0 .3-.3.5-.6.5a.5.5 0 0 1-.6-.5V81c0-.3.3-.6.6-.6Zm.8 5.3c0 .4-.4.7-.8.7a.7.7 0 0 1-.8-.8c0-.3.4-.7.8-.7s.8.4.8.8Z"/></g><defs><clipPath id="a"><path fill="#fff" d="M0 0h300v180H0z"/></clipPath><clipPath id="b"><rect width="300" height="180" fill="#fff" rx="12"/></clipPath><radialGradient id="c" cx="0" cy="0" r="1" gradientTransform="rotate(90 0 150) scale(150)" gradientUnits="userSpaceOnUse"><stop stop-opacity=".6"/><stop offset=".5" stop-opacity=".3"/><stop offset="1" stop-opacity=".1"/></radialGradient><filter id="e" width="169" height="55" x="66" y="64" color-interpolation-filters="sRGB" filterUnits="userSpaceOnUse"><feFlood flood-opacity="0" result="BackgroundImageFix"/><feColorMatrix in="SourceAlpha" result="hardAlpha" values="0 0 0 0 0 0 0 0 0 0 0 0 0 0 0 0 0 0 127 0"/><feOffset dy="1"/><feGaussianBlur stdDeviation=".5"/><feComposite in2="hardAlpha" operator="out"/><feColorMatrix values="0 0 0 0 0.74902 0 0 0 0 0.831373 0 0 0 0 0.996078 0 0 0 0.3 0"/><feBlend in2="BackgroundImageFix" result="effect1_dropShadow_4_31"/><feBlend in="SourceGraphic" in2="effect1_dropShadow_4_31" result="shape"/></filter></defs></svg>
