<svg xmlns="http://www.w3.org/2000/svg" width="300" height="180" fill="none"><g clip-path="url(#a)"><g clip-path="url(#b)"><rect width="300" height="180" fill="#EFF4FF" rx="12"/><mask id="d" width="300" height="300" x="0" y="0" maskUnits="userSpaceOnUse" style="mask-type:alpha"><path fill="url(#c)" d="M0 0h300v300H0z"/></mask><g mask="url(#d)"><path stroke="#BFD4FE" d="m60.5 0-30 180m90-180-30 180m90-180-30 180m90-180-30 180m90-180-30 180M90.5 0l-30 180m90-180-30 180m90-180-30 180m90-180-30 180M0-.5l300 30M0 59.5l300 30m-300 30 300 30M0 29.5l300 30M0 89.5l300 30M30.5 0 .5 180m0-30.5 300 30"/></g></g><rect width="299" height="179" x=".5" y=".5" stroke="#DBE6FE" rx="11.5"/><mask id="e" width="60" height="60" x="120" y="60" maskUnits="userSpaceOnUse" style="mask-type:alpha"><path fill="#000" d="M177.7 101.5A30 30 0 0 0 150 60a30 30 0 1 0 11.6 57.7 11.4 11.4 0 0 1 16.1-16.2Z"/></mask><g mask="url(#e)"><path fill="#DBE6FE" d="M120 60h60v60h-60z"/><path fill="#3D6EF6" d="M152.9 85.5c0-1-.7-2.1-1.6-2.7-1-.5-2.2-.5-3.1 0a3.1 3.1 0 0 0 0 5.4c1 .6 2.1.6 3.1 0s1.6-1.6 1.6-2.7Zm-8.2 0a5 5 0 0 1 2.6-4.3 5 5 0 0 1 5 0 5 5 0 0 1 2.4 4.3 5 5 0 0 1-2.4 4.3 5 5 0 0 1-5 0 5 5 0 0 1-2.6-4.3ZM143 98.6h13.6a5.1 5.1 0 0 0-5-4.3H148c-2.6 0-4.7 1.9-5 4.3Zm-1.9.8c0-3.9 3-7 7-7h3.5a7 7 0 0 1 7 7c0 .6-.5 1.1-1.2 1.1h-15.2c-.6 0-1.1-.5-1.1-1.1Z"/></g><circle cx="170" cy="110" r="9" fill="#3D6EF6"/></g><defs><clipPath id="a"><path fill="#fff" d="M0 0h300v180H0z"/></clipPath><clipPath id="b"><rect width="300" height="180" fill="#fff" rx="12"/></clipPath><radialGradient id="c" cx="0" cy="0" r="1" gradientTransform="rotate(90 0 150) scale(150)" gradientUnits="userSpaceOnUse"><stop stop-opacity=".6"/><stop offset=".5" stop-opacity=".3"/><stop offset="1" stop-opacity=".1"/></radialGradient></defs></svg>
