<svg xmlns="http://www.w3.org/2000/svg" width="300" height="180" fill="none"><g clip-path="url(#a)"><g clip-path="url(#b)"><rect width="300" height="180" fill="#EFF4FF" rx="12"/><mask id="d" width="300" height="300" x="0" y="0" maskUnits="userSpaceOnUse" style="mask-type:alpha"><path fill="url(#c)" d="M0 0h300v300H0z"/></mask></g><rect width="299" height="179" x=".5" y=".5" stroke="#DBE6FE" rx="11.5"/><mask id="f" width="300" height="180" x="0" y="0" maskUnits="userSpaceOnUse" style="mask-type:alpha"><path fill="url(#e)" d="M0 0h300v180H0z"/></mask><g mask="url(#f)"><path stroke="#DBE6FE" d="M30.5 0v180m90-180v180m90-180v180M60.5 0v180m90-180v180m90-180v180M90.5 0v180m90-180v180m90-180v180M0 29.5h300M0 59.5h300M0 89.5h300m-300 30h300m-300 30h300"/></g></g><defs><radialGradient id="c" cx="0" cy="0" r="1" gradientTransform="rotate(90 0 150) scale(150)" gradientUnits="userSpaceOnUse"><stop stop-opacity=".6"/><stop offset=".5" stop-opacity=".3"/><stop offset="1" stop-opacity=".1"/></radialGradient><radialGradient id="e" cx="0" cy="0" r="1" gradientTransform="matrix(0 90 -150 0 150 90)" gradientUnits="userSpaceOnUse"><stop/><stop offset=".5" stop-opacity=".8"/><stop offset="1" stop-opacity=".1"/></radialGradient><clipPath id="a"><path fill="#fff" d="M0 0h300v180H0z"/></clipPath><clipPath id="b"><rect width="300" height="180" fill="#fff" rx="12"/></clipPath></defs></svg>
