<svg xmlns="http://www.w3.org/2000/svg" width="300" height="180" fill="none"><g clip-path="url(#a)"><g clip-path="url(#b)"><rect width="300" height="180" fill="#EFF4FF" rx="12"/><mask id="d" width="300" height="300" x="0" y="0" maskUnits="userSpaceOnUse" style="mask-type:alpha"><path fill="url(#c)" d="M0 0h300v300H0z"/></mask><g mask="url(#d)"><path stroke="#BFD4FE" d="m60.5 0-30 180m90-180-30 180m90-180-30 180m90-180-30 180m90-180-30 180M90.5 0l-30 180m90-180-30 180m90-180-30 180m90-180-30 180M0-.5l300 30M0 59.5l300 30m-300 30 300 30M0 29.5l300 30M0 89.5l300 30M30.5 0 .5 180m0-30.5 300 30"/></g></g><rect width="299" height="179" x=".5" y=".5" stroke="#DBE6FE" rx="11.5"/><rect width="30" height="30" x="135" y="75" fill="#BFD4FE" rx="3"/><path fill="#3D6EF6" d="M155.7 98.1h-11.9a.8.8 0 0 1-.8-.8c0-.5.4-.9.8-.9h11.9c.4 0 .8.4.8.9s-.4.8-.8.8Zm-6.6-4.7-4.5-4.8a.9.9 0 0 1 0-1.2c.4-.3 1-.3 1.2 0l3.1 3.3v-7.5c0-.4.4-.8.8-.8.5 0 .9.4.9.8v7.5l3-3.3c.3-.3.9-.3 1.2 0 .4.3.4.8 0 1.2l-4.5 4.8c-.1.2-.3.2-.6.2-.2 0-.4 0-.6-.2Z"/></g><defs><clipPath id="a"><path fill="#fff" d="M0 0h300v180H0z"/></clipPath><clipPath id="b"><rect width="300" height="180" fill="#fff" rx="12"/></clipPath><radialGradient id="c" cx="0" cy="0" r="1" gradientTransform="rotate(90 0 150) scale(150)" gradientUnits="userSpaceOnUse"><stop stop-opacity=".6"/><stop offset=".5" stop-opacity=".3"/><stop offset="1" stop-opacity=".1"/></radialGradient></defs></svg>
