<svg xmlns="http://www.w3.org/2000/svg" width="300" height="180" fill="none"><g clip-path="url(#a)"><g clip-path="url(#b)"><rect width="300" height="180" fill="#EFF4FF" rx="12"/><mask id="d" width="300" height="300" x="0" y="0" maskUnits="userSpaceOnUse" style="mask-type:alpha"><path fill="url(#c)" d="M0 0h300v300H0z"/></mask><g mask="url(#d)"><path stroke="#BFD4FE" d="m60.5 0-30 180m90-180-30 180m90-180-30 180m90-180-30 180m90-180-30 180M90.5 0l-30 180m90-180-30 180m90-180-30 180m90-180-30 180M0-.5l300 30M0 59.5l300 30m-300 30 300 30M0 29.5l300 30M0 89.5l300 30M30.5 0 .5 180m0-30.5 300 30"/></g></g><rect width="299" height="179" x=".5" y=".5" stroke="#DBE6FE" rx="11.5"/><rect width="212" height="33" x="44" y="74" fill="#DBE6FE" rx="9"/><path fill="#3D6EF6" d="M63.5 84.3a6.1 6.1 0 1 0 5.3 9.1 6.1 6.1 0 0 0-5.3-9.1Zm0 13.6A7.5 7.5 0 0 1 57 94a7.5 7.5 0 0 1 13-7.5 7.5 7.5 0 0 1 0 7.5 7.4 7.4 0 0 1-6.5 3.8Zm3.3-8.9-3.7 3.7c-.3.3-.8.3-1 0L60 91a.6.6 0 0 1 0-1c.4-.3.8-.3 1 0l1.5 1.4 3.2-3.3c.3-.3.7-.3 1 0 .3.3.3.7 0 1ZM91 89h-1a2.2 2.2 0 0 0-.9-1.4c-.2-.1-.4-.3-.7-.3a3 3 0 0 0-2.3.2c-.4.3-.7.7-1 1.2-.2.5-.4 1.2-.4 2 0 .7.2 1.3.4 1.8.3.6.6 1 1 1.2.5.3 1 .4 1.5.4h.8l.7-.4a2.2 2.2 0 0 0 1-1.4h1c-.1.4-.2.8-.5 1.2a3.3 3.3 0 0 1-1.8 1.4 4 4 0 0 1-3.2-.3c-.6-.4-1-1-1.4-1.6-.3-.6-.5-1.4-.5-2.4 0-.9.2-1.7.5-2.3a3.7 3.7 0 0 1 3.4-2.1l1.2.1a3.4 3.4 0 0 1 1.8 1.5c.3.4.4.8.5 1.2Zm2.7 2v4h-1v-8.7h1v3.2c.2-.4.4-.6.7-.8.3-.2.8-.3 1.3-.3.4 0 .8 0 1.1.2.4.2.6.5.8.9.2.3.3.8.3 1.3V95h-1v-4c0-.6-.1-1-.4-1.3-.3-.3-.6-.4-1.1-.4-.4 0-.6 0-1 .2-.2.1-.4.3-.5.6a2 2 0 0 0-.2 1Zm8 4.2-1.2-.3a2 2 0 0 1-.8-.7 2 2 0 0 1-.3-1c0-.4.1-.7.3-1l.5-.5.9-.3a10 10 0 0 1 1.8-.3l.6-.1.2-.4c0-.4-.2-.8-.4-1-.2-.2-.6-.3-1-.3-.5 0-.9 0-1.1.3l-.6.6-1-.3a2.3 2.3 0 0 1 1.6-1.4 3.9 3.9 0 0 1 1.8 0l.8.2.6.7c.2.4.3.8.3 1.3V95h-1v-.9l-.4.5a2 2 0 0 1-.7.4l-1 .2Zm.1-1c.4 0 .8 0 1-.2a1.6 1.6 0 0 0 .9-1.4v-.9l-.3.2a4.8 4.8 0 0 1-1 .1 27.2 27.2 0 0 0-1.2.3l-.6.3-.2.6c0 .3.2.6.4.8.3.2.6.3 1 .3Zm5.7-3.1V95h-1v-6.5h1v1c.2-.4.4-.6.8-.8.3-.2.7-.3 1.2-.3.4 0 .8 0 1.1.2.4.2.6.5.8.9.2.3.3.8.3 1.3V95h-1v-4c0-.6-.2-1-.4-1.3-.3-.3-.7-.4-1.1-.4-.3 0-.6 0-.9.2l-.6.6a2 2 0 0 0-.2 1Zm8.7 6.5c-.5 0-1 0-1.3-.2a2.7 2.7 0 0 1-1.4-1.1l.8-.6.3.4.6.4 1 .2c.5 0 1-.1 1.3-.4.3-.2.5-.6.5-1.2v-1.3h-.1l-.3.4c-.1.2-.3.4-.6.5l-1 .2c-.5 0-1-.1-1.4-.4-.4-.2-.8-.6-1-1-.3-.5-.4-1.1-.4-1.8s.1-1.3.4-1.8c.2-.5.5-.8 1-1.1.4-.3.9-.4 1.4-.4.4 0 .8 0 1 .2.3.1.5.3.6.5l.3.4h.1v-1h1v6.7c0 .5-.1 1-.4 1.4-.2.3-.6.6-1 .7-.4.2-1 .3-1.4.3Zm0-3.6a1.7 1.7 0 0 0 1.7-1l.1-1.3c0-.5 0-1-.2-1.3l-.6-.8c-.3-.2-.7-.3-1-.3a1.7 1.7 0 0 0-1.8 1.2l-.2 1.2c0 .4 0 .8.2 1.2l.7.8c.3.2.6.3 1 .3Zm7.4 1.1a2.8 2.8 0 0 1-2.7-1.6 4 4 0 0 1-.4-1.7c0-.7.2-1.3.4-1.8s.6-1 1-1.2c.5-.3 1-.4 1.6-.4l1 .1a2.5 2.5 0 0 1 1.5 1.6c.2.4.3 1 .3 1.5v.5h-5v-.9h4c0-.4-.1-.7-.3-1a1.7 1.7 0 0 0-1.5-1c-.4 0-.8.2-1 .4a2 2 0 0 0-.7.7l-.3 1v.6c0 .5.1 1 .3 1.3l.7.8 1 .2h.8l.6-.4.3-.6 1 .3-.5.9-1 .5c-.3.2-.7.2-1.1.2Zm8.9-5.2-1 .3c0-.2 0-.3-.2-.5l-.4-.3-.8-.2c-.4 0-.7.1-1 .3-.2.2-.4.4-.4.7 0 .3.1.5.3.6l.9.4 1 .2c.5.1 1 .4 1.2.7.3.2.5.6.5 1 0 .5-.1.8-.3 1-.3.4-.6.6-1 .8-.3.2-.8.2-1.3.2a3 3 0 0 1-1.6-.4 2 2 0 0 1-.9-1.3l1-.2c0 .3.2.6.5.8.3.2.6.3 1 .3.5 0 .8-.1 1.1-.3.3-.3.4-.5.4-.8 0-.2 0-.4-.2-.5l-.7-.4-1.1-.2c-.6-.2-1-.4-1.3-.7-.3-.3-.5-.7-.5-1.1 0-.4.1-.7.3-1l.9-.7a3 3 0 0 1 1.2-.2c.7 0 1.2.1 1.6.4l.8 1.1Zm9.6 0-.9.3c0-.2-.1-.3-.3-.5l-.4-.3-.7-.2c-.4 0-.8.1-1 .3-.3.2-.4.4-.4.7 0 .3 0 .5.3.6l.8.4 1 .2c.6.1 1 .4 1.3.7.3.2.4.6.4 1 0 .5 0 .8-.3 1-.2.4-.5.6-.9.8-.4.2-.8.2-1.3.2a3 3 0 0 1-1.7-.4 2 2 0 0 1-.8-1.3l1-.2c0 .3.2.6.4.8.3.2.6.3 1 .3.5 0 .9-.1 1.2-.3.2-.3.4-.5.4-.8 0-.2-.1-.4-.3-.5-.1-.2-.4-.3-.7-.4l-1-.2c-.7-.2-1.1-.4-1.4-.7-.3-.3-.4-.7-.4-1.1 0-.4 0-.7.3-1l.8-.7a3 3 0 0 1 1.3-.2c.6 0 1.1.1 1.5.4.4.3.6.7.8 1.1Zm3.6 5.3c-.5 0-.8-.1-1.2-.3a2 2 0 0 1-.8-.7 2 2 0 0 1-.3-1l.2-1 .6-.5.9-.3a10 10 0 0 1 1.8-.3l.6-.1.2-.4c0-.4-.2-.8-.4-1-.2-.2-.6-.3-1-.3-.5 0-.9 0-1.2.3l-.5.6-1-.3a2.3 2.3 0 0 1 1.6-1.4 3.9 3.9 0 0 1 1.8 0l.8.2.6.7c.2.4.3.8.3 1.3V95h-1v-.9h-.1c0 .2-.2.3-.3.5a2 2 0 0 1-.7.4l-1 .2Zm.1-1c.4 0 .7 0 1-.2a1.6 1.6 0 0 0 .9-1.4v-.9l-.3.2a4.8 4.8 0 0 1-1 .1 26.1 26.1 0 0 0-1.2.3l-.6.3-.2.6c0 .3.2.6.4.8.3.2.6.3 1 .3Zm9.8-5.7-2.4 6.5h-1l-2.5-6.5h1.1l1.8 5.2h.1l1.8-5.2h1.1Zm3.8 6.6a2.8 2.8 0 0 1-2.7-1.6 4 4 0 0 1-.3-1.7c0-.7.1-1.3.4-1.8.2-.5.6-1 1-1.2a3.1 3.1 0 0 1 2.6-.3 2.5 2.5 0 0 1 1.5 1.6c.2.4.3 1 .3 1.5v.5h-5v-.9h4c0-.4-.1-.7-.3-1a1.7 1.7 0 0 0-1.6-1c-.4 0-.7.2-1 .4a2 2 0 0 0-.7.7l-.2 1v.6c0 .5 0 1 .3 1.3.1.3.4.6.7.8l1 .2h.8l.5-.4.4-.6 1 .3-.6.9c-.2.2-.5.4-.9.5-.3.2-.7.2-1.2.2Zm6.8 0a2.6 2.6 0 0 1-2.5-1.6c-.2-.5-.3-1-.3-1.8 0-.6.1-1.2.3-1.7.3-.6.6-1 1-1.2.4-.3 1-.4 1.5-.4.4 0 .7 0 1 .2l.6.5.3.4v-3.2h1V95h-1v-1l-.3.4-.6.5c-.3.2-.6.2-1 .2Zm.1-.9c.4 0 .7 0 1-.3.3-.2.5-.5.7-.9l.2-1.3-.2-1.3-.7-.8c-.2-.2-.6-.3-1-.3s-.8 0-1 .3a2 2 0 0 0-.7.9l-.2 1.2c0 .5 0 1 .2 1.3.1.4.4.7.6.9.3.2.7.3 1.1.3Zm12.9-4.3-1 .3c0-.2 0-.3-.2-.5l-.4-.3-.8-.2c-.4 0-.7.1-1 .3-.2.2-.4.4-.4.7 0 .3.1.5.3.6l.9.4 1 .2c.5.1 1 .4 1.2.7.3.2.5.6.5 1 0 .5-.1.8-.4 1-.2.4-.5.6-.8.8-.4.2-.9.2-1.4.2a3 3 0 0 1-1.6-.4 2 2 0 0 1-.9-1.3l1-.2c0 .3.2.6.5.8.3.2.6.3 1 .3.5 0 .8-.1 1.1-.3.3-.3.4-.5.4-.8 0-.2 0-.4-.2-.5l-.7-.4-1.1-.2c-.6-.2-1-.4-1.3-.7-.3-.3-.5-.7-.5-1.1 0-.4.1-.7.3-1l.9-.7a3 3 0 0 1 1.2-.2c.7 0 1.2.1 1.6.4l.8 1.1Zm5.7 2.4v-3.8h1V95h-1v-1.1c-.2.3-.4.6-.8.8a2 2 0 0 1-1.2.4c-.4 0-.8-.1-1-.3-.4-.2-.7-.4-.8-.8-.2-.4-.3-.8-.3-1.4v-4.1h1v4c0 .5.1.9.4 1.2.3.3.6.4 1 .4a1.7 1.7 0 0 0 1.7-1.8Zm5.5 2.8c-.6 0-1.1-.1-1.6-.4-.4-.3-.8-.7-1-1.2a4 4 0 0 1-.3-1.7c0-.7 0-1.3.3-1.8s.6-1 1-1.2c.5-.3 1-.4 1.6-.4.5 0 .9 0 1.2.2l1 .7.4 1.1h-1c0-.3-.3-.5-.5-.8-.3-.2-.6-.3-1-.3-.5 0-.8 0-1.1.3a2 2 0 0 0-.7.8c-.2.4-.2.8-.2 1.3s0 1 .2 1.3l.7 1 1 .2.7-.1a1.5 1.5 0 0 0 .9-1h1a2.3 2.3 0 0 1-1.3 1.8l-1.3.2Zm6.7 0c-.6 0-1.1-.1-1.6-.4-.4-.3-.7-.7-1-1.2a4 4 0 0 1-.3-1.7c0-.7 0-1.3.3-1.8s.6-1 1-1.2c.5-.3 1-.4 1.6-.4.5 0 .9 0 1.3.2l.9.7.4 1.1h-1a1.6 1.6 0 0 0-1.6-1.1c-.4 0-.7 0-1 .3a2 2 0 0 0-.7.8c-.2.4-.2.8-.2 1.3s0 1 .2 1.3l.7 1 1 .2.7-.1a1.5 1.5 0 0 0 .9-1h1a2.3 2.3 0 0 1-1.3 1.8l-1.3.2Zm6.8 0a2.8 2.8 0 0 1-2.7-1.6 4 4 0 0 1-.3-1.7c0-.7 0-1.3.3-1.8s.6-1 1-1.2c.5-.3 1-.4 1.6-.4l1 .1a2.5 2.5 0 0 1 1.6 1.6l.2 1.5v.5h-5v-.9h4c0-.4 0-.7-.2-1a1.7 1.7 0 0 0-1.6-1c-.4 0-.7.2-1 .4a2 2 0 0 0-.7.7c-.2.4-.2.7-.2 1v.6c0 .5 0 1 .2 1.3l.7.8 1.1.2h.7l.6-.4.3-.6 1 .3c0 .3-.3.6-.5.9-.2.2-.5.4-.9.5-.3.2-.7.2-1.2.2Zm8.9-5.2-1 .3c0-.2 0-.3-.2-.5l-.4-.3-.7-.2c-.4 0-.8.1-1 .3-.3.2-.4.4-.4.7 0 .3 0 .5.2.6l.9.4 1 .2c.6.1 1 .4 1.3.7.3.2.4.6.4 1 0 .5-.1.8-.3 1-.2.4-.5.6-1 .8-.3.2-.7.2-1.3.2a3 3 0 0 1-1.6-.4 2 2 0 0 1-.8-1.3l1-.2c0 .3.2.6.4.8.3.2.6.3 1 .3.5 0 .9-.1 1.1-.3.3-.3.5-.5.5-.8 0-.2-.1-.4-.3-.5-.1-.2-.4-.3-.7-.4l-1.1-.2c-.6-.2-1-.4-1.3-.7-.3-.3-.4-.7-.4-1.1 0-.4 0-.7.3-1l.8-.7a3 3 0 0 1 1.3-.2c.6 0 1.1.1 1.5.4.4.3.6.7.8 1.1Zm6.3 0-1 .3c0-.2 0-.3-.2-.5l-.4-.3-.8-.2c-.4 0-.7.1-1 .3-.2.2-.4.4-.4.7 0 .3.1.5.3.6l.9.4 1 .2c.5.1 1 .4 1.2.7.3.2.5.6.5 1 0 .5-.1.8-.3 1-.3.4-.6.6-1 .8-.3.2-.8.2-1.3.2a3 3 0 0 1-1.6-.4 2 2 0 0 1-.9-1.3l1-.2c0 .3.2.6.5.8.3.2.6.3 1 .3.5 0 .8-.1 1.1-.3.3-.3.4-.5.4-.8 0-.2 0-.4-.2-.5l-.7-.4-1.1-.2c-.6-.2-1-.4-1.3-.7-.3-.3-.5-.7-.5-1.1 0-.4.1-.7.3-1l.9-.7a3 3 0 0 1 1.2-.2c.7 0 1.2.1 1.6.4l.8 1.1Zm4.5-1.4v.8h-3.5v-.8h3.5Zm-2.5 6.5v-7.4a1.6 1.6 0 0 1 1-1.5c.3-.2.6-.2.9-.2a2.5 2.5 0 0 1 1 .1l-.4.9h-.2l-.3-.1c-.4 0-.6 0-.7.3-.2.1-.3.4-.3.7V95h-1Zm8-2.7v-3.8h1V95h-1v-1.1l-.7.8a2 2 0 0 1-1.3.4c-.4 0-.7-.1-1-.3-.4-.2-.6-.4-.8-.8-.2-.4-.3-.8-.3-1.4v-4.1h1v4c0 .5.2.9.4 1.2.3.3.6.4 1 .4a1.7 1.7 0 0 0 1.5-.8c.2-.2.2-.6.2-1Zm3.9-6V95h-1v-8.7h1Zm2.8 0V95h-1v-8.7h1Zm2.5 11.2a2.2 2.2 0 0 1-.7-.2l.3-.9.6.1c.2 0 .4 0 .5-.2l.4-.8.2-.5-2.4-6.5h1l1.9 5.2 1.8-5.2h1.1l-2.7 7.5-.5.8-.7.5a2 2 0 0 1-.8.2Z"/></g><defs><clipPath id="a"><path fill="#fff" d="M0 0h300v180H0z"/></clipPath><clipPath id="b"><rect width="300" height="180" fill="#fff" rx="12"/></clipPath><radialGradient id="c" cx="0" cy="0" r="1" gradientTransform="rotate(90 0 150) scale(150)" gradientUnits="userSpaceOnUse"><stop stop-opacity=".6"/><stop offset=".5" stop-opacity=".3"/><stop offset="1" stop-opacity=".1"/></radialGradient></defs></svg>
