<svg xmlns="http://www.w3.org/2000/svg" width="300" height="180" fill="none"><g clip-path="url(#a)"><g clip-path="url(#b)"><rect width="300" height="180" fill="#EFF4FF" rx="12"/><mask id="d" width="300" height="300" x="0" y="0" maskUnits="userSpaceOnUse" style="mask-type:alpha"><path fill="url(#c)" d="M0 0h300v300H0z"/></mask><g mask="url(#d)"><path stroke="#BFD4FE" d="m60.5 0-30 180m90-180-30 180m90-180-30 180m90-180-30 180m90-180-30 180M90.5 0l-30 180m90-180-30 180m90-180-30 180m90-180-30 180M0-.5l300 30M0 59.5l300 30m-300 30 300 30M0 29.5l300 30M0 89.5l300 30M30.5 0 .5 180m0-30.5 300 30"/></g></g><rect width="299" height="179" x=".5" y=".5" stroke="#DBE6FE" rx="11.5"/><g filter="url(#e)"><rect width="84" height="84" x="108" y="48" fill="#fff" rx="9"/><rect width="85" height="85" x="107.5" y="47.5" stroke="#BFD4FE" rx="9.5"/></g><path fill="#3D6EF6" d="M158.8 90.7c7.1-4.8 8-11.8 7.2-16.7-5-.7-11.9 0-16.8 7.3-2.3 3.4-5.3 10-7 13.5l2.8 2.8a86.9 86.9 0 0 0 13.8-6.9Zm-19.6 1.8H132c-.7 0-1.4-.3-1.7-1-.4-.5-.3-1.2 0-1.8l4.1-6.9c1-1.7 2.9-2.8 4.8-2.8h6.4l.7-.9c6.4-9.4 16-9.7 21.5-8.6 1 .1 1.7.8 1.8 1.8 1.1 5.6.8 15.1-8.6 21.5l-.9.7v6.4c0 2-1 3.8-2.8 4.8l-6.9 4c-.6.5-1.3.5-1.9 0-.6-.2-.9-.9-.9-1.5v-7.6l-1.8.8c-1 .4-2 .2-2.7-.5l-4-4c-.7-.7-1-1.7-.5-2.7l.7-1.7ZM162 81.2c0 1.2-.7 2.2-1.6 2.8-1 .5-2.2.5-3.1 0a3 3 0 0 1-1.6-2.8 3 3 0 0 1 1.6-2.6c1-.6 2.1-.6 3.1 0 1 .5 1.6 1.6 1.6 2.7Z"/></g><defs><clipPath id="a"><path fill="#fff" d="M0 0h300v180H0z"/></clipPath><clipPath id="b"><rect width="300" height="180" fill="#fff" rx="12"/></clipPath><radialGradient id="c" cx="0" cy="0" r="1" gradientTransform="rotate(90 0 150) scale(150)" gradientUnits="userSpaceOnUse"><stop stop-opacity=".6"/><stop offset=".5" stop-opacity=".3"/><stop offset="1" stop-opacity=".1"/></radialGradient><filter id="e" width="88" height="88" x="106" y="47" color-interpolation-filters="sRGB" filterUnits="userSpaceOnUse"><feFlood flood-opacity="0" result="BackgroundImageFix"/><feColorMatrix in="SourceAlpha" result="hardAlpha" values="0 0 0 0 0 0 0 0 0 0 0 0 0 0 0 0 0 0 127 0"/><feOffset dy="1"/><feGaussianBlur stdDeviation=".5"/><feComposite in2="hardAlpha" operator="out"/><feColorMatrix values="0 0 0 0 0.74902 0 0 0 0 0.831373 0 0 0 0 0.996078 0 0 0 0.3 0"/><feBlend in2="BackgroundImageFix" result="effect1_dropShadow_40_113"/><feBlend in="SourceGraphic" in2="effect1_dropShadow_40_113" result="shape"/></filter></defs></svg>
