<svg xmlns="http://www.w3.org/2000/svg" width="300" height="180" fill="none"><g clip-path="url(#a)"><g clip-path="url(#b)"><rect width="300" height="180" fill="#EFF4FF" rx="12"/><mask id="d" width="300" height="300" x="0" y="0" maskUnits="userSpaceOnUse" style="mask-type:alpha"><path fill="url(#c)" d="M0 0h300v300H0z"/></mask><g mask="url(#d)"><path stroke="#BFD4FE" d="m60.5 0-30 180m90-180-30 180m90-180-30 180m90-180-30 180m90-180-30 180M90.5 0l-30 180m90-180-30 180m90-180-30 180m90-180-30 180M0-.5l300 30M0 59.5l300 30m-300 30 300 30M0 29.5l300 30M0 89.5l300 30M30.5 0 .5 180m0-30.5 300 30"/></g></g><rect width="299" height="179" x=".5" y=".5" stroke="#DBE6FE" rx="11.5"/><g filter="url(#e)"><path fill="#fff" d="M108 84c0-10 8-18 18-18h48c10 0 18 8 18 18v21c0 5-4 9-9 9h-57c-10 0-18-8-18-18V84Z"/><path stroke="#BFD4FE" d="M174 65.5h-48A18.5 18.5 0 0 0 107.5 84v12c0 10.2 8.3 18.5 18.5 18.5h57c5.2 0 9.5-4.3 9.5-9.5V84c0-10.2-8.3-18.5-18.5-18.5Z"/></g><path fill="#3D6EF6" d="M129.4 96V84.4h2.2v4.9h5.3v-5h2.2V96h-2.2v-5h-5.3v5h-2.2Zm15.7.2c-.9 0-1.6-.2-2.2-.6-.7-.3-1.2-.9-1.5-1.5-.3-.7-.5-1.5-.5-2.4 0-1 .2-1.7.5-2.4a3.9 3.9 0 0 1 3.6-2.1c.6 0 1 0 1.5.2l1.3.8c.4.4.7.8.9 1.4.2.5.3 1.2.3 2v.6h-7.1v-1.4h5.1c0-.4 0-.7-.2-1l-.7-.8a2 2 0 0 0-1-.2 2 2 0 0 0-1.2.3c-.3.2-.5.4-.7.8-.2.3-.3.6-.3 1v1.2c0 .6.1 1 .3 1.4.2.3.4.6.8.8.3.2.7.3 1.2.3.3 0 .5 0 .8-.2l.6-.3.4-.7 2 .3a3 3 0 0 1-.8 1.3c-.3.4-.7.7-1.3.9a5 5 0 0 1-1.8.3Zm7.7-11.8V96h-2V84.4h2Zm4.2 0V96h-2V84.4h2Zm5.9 11.8c-.9 0-1.6-.2-2.2-.6-.6-.4-1.1-.9-1.5-1.6-.3-.6-.5-1.4-.5-2.3 0-1 .2-1.7.5-2.4.4-.7.9-1.2 1.5-1.6.6-.4 1.3-.5 2.2-.5.8 0 1.6.1 2.2.5.6.4 1.1 1 1.5 1.6.3.7.5 1.5.5 2.4 0 .9-.2 1.7-.5 2.3-.4.7-.9 1.2-1.5 1.6-.6.4-1.4.6-2.2.6Zm0-1.7c.5 0 .9-.1 1.2-.4.3-.2.5-.6.7-1l.2-1.4c0-.6 0-1-.2-1.5-.2-.4-.4-.8-.7-1-.3-.3-.7-.4-1.2-.4s-.9.1-1.2.4c-.3.2-.5.6-.7 1l-.2 1.5c0 .5 0 1 .2 1.4.2.4.4.8.7 1 .3.3.7.4 1.2.4Zm8.4-10.1-.1 8.2h-1.9l-.2-8.2h2.2Zm-1 11.7c-.4 0-.7-.1-1-.3-.2-.3-.3-.6-.3-1 0-.3.1-.6.4-.8.2-.2.5-.4.8-.4.4 0 .7.2 1 .4.2.2.3.5.3.9 0 .2 0 .4-.2.6l-.4.5-.7.1Z"/></g><defs><clipPath id="a"><path fill="#fff" d="M0 0h300v180H0z"/></clipPath><clipPath id="b"><rect width="300" height="180" fill="#fff" rx="12"/></clipPath><radialGradient id="c" cx="0" cy="0" r="1" gradientTransform="rotate(90 0 150) scale(150)" gradientUnits="userSpaceOnUse"><stop stop-opacity=".6"/><stop offset=".5" stop-opacity=".3"/><stop offset="1" stop-opacity=".1"/></radialGradient><filter id="e" width="88" height="52" x="106" y="65" color-interpolation-filters="sRGB" filterUnits="userSpaceOnUse"><feFlood flood-opacity="0" result="BackgroundImageFix"/><feColorMatrix in="SourceAlpha" result="hardAlpha" values="0 0 0 0 0 0 0 0 0 0 0 0 0 0 0 0 0 0 127 0"/><feOffset dy="1"/><feGaussianBlur stdDeviation=".5"/><feComposite in2="hardAlpha" operator="out"/><feColorMatrix values="0 0 0 0 0.74902 0 0 0 0 0.831373 0 0 0 0 0.996078 0 0 0 0.3 0"/><feBlend in2="BackgroundImageFix" result="effect1_dropShadow_40_147"/><feBlend in="SourceGraphic" in2="effect1_dropShadow_40_147" result="shape"/></filter></defs></svg>
