<svg xmlns="http://www.w3.org/2000/svg" width="300" height="180" fill="none"><g clip-path="url(#a)"><g clip-path="url(#b)"><rect width="300" height="180" fill="#EFF4FF" rx="12"/><mask id="d" width="300" height="300" x="0" y="0" maskUnits="userSpaceOnUse" style="mask-type:alpha"><path fill="url(#c)" d="M0 0h300v300H0z"/></mask><g mask="url(#d)"><path stroke="#BFD4FE" d="m60.5 0-30 180m90-180-30 180m90-180-30 180m90-180-30 180m90-180-30 180M90.5 0l-30 180m90-180-30 180m90-180-30 180m90-180-30 180M0-.5l300 30M0 59.5l300 30m-300 30 300 30M0 29.5l300 30M0 89.5l300 30M30.5 0 .5 180m0-30.5 300 30"/></g></g><rect width="299" height="179" x=".5" y=".5" stroke="#DBE6FE" rx="11.5"/><g filter="url(#e)"><rect width="84" height="84" x="108" y="48" fill="#fff" rx="9"/><rect width="85" height="85" x="107.5" y="47.5" stroke="#BFD4FE" rx="9.5"/></g><path fill="#BFD4FE" d="M136 74.5c-.8 0-1.5.7-1.5 1.5v13.5a1.5 1.5 0 0 0 3 0v-12h12a1.5 1.5 0 0 0 0-3H136Zm28 31c.8 0 1.5-.7 1.5-1.5V90.5a1.5 1.5 0 0 0-3 0v12h-12a1.5 1.5 0 0 0 0 3H164Zm-29-28.4 28 28 2-2.2-28-28-2 2.2Z"/></g><defs><clipPath id="a"><path fill="#fff" d="M0 0h300v180H0z"/></clipPath><clipPath id="b"><rect width="300" height="180" fill="#fff" rx="12"/></clipPath><radialGradient id="c" cx="0" cy="0" r="1" gradientTransform="rotate(90 0 150) scale(150)" gradientUnits="userSpaceOnUse"><stop stop-opacity=".6"/><stop offset=".5" stop-opacity=".3"/><stop offset="1" stop-opacity=".1"/></radialGradient><filter id="e" width="88" height="88" x="106" y="47" color-interpolation-filters="sRGB" filterUnits="userSpaceOnUse"><feFlood flood-opacity="0" result="BackgroundImageFix"/><feColorMatrix in="SourceAlpha" result="hardAlpha" values="0 0 0 0 0 0 0 0 0 0 0 0 0 0 0 0 0 0 127 0"/><feOffset dy="1"/><feGaussianBlur stdDeviation=".5"/><feComposite in2="hardAlpha" operator="out"/><feColorMatrix values="0 0 0 0 0.74902 0 0 0 0 0.831373 0 0 0 0 0.996078 0 0 0 0.3 0"/><feBlend in2="BackgroundImageFix" result="effect1_dropShadow_37_30"/><feBlend in="SourceGraphic" in2="effect1_dropShadow_37_30" result="shape"/></filter></defs></svg>
