<svg xmlns="http://www.w3.org/2000/svg" width="300" height="180" fill="none"><g clip-path="url(#a)"><g clip-path="url(#b)"><rect width="300" height="180" fill="#EFF4FF" rx="12"/><mask id="d" width="300" height="300" x="0" y="0" maskUnits="userSpaceOnUse" style="mask-type:alpha"><path fill="url(#c)" d="M0 0h300v300H0z"/></mask><g mask="url(#d)"><path stroke="#BFD4FE" d="m60.5 0-30 180m90-180-30 180m90-180-30 180m90-180-30 180m90-180-30 180M90.5 0l-30 180m90-180-30 180m90-180-30 180m90-180-30 180M0-.5l300 30M0 59.5l300 30m-300 30 300 30M0 29.5l300 30M0 89.5l300 30M30.5 0 .5 180m0-30.5 300 30"/></g></g><rect width="299" height="179" x=".5" y=".5" stroke="#DBE6FE" rx="11.5"/><path fill="#3D6EF6" d="M110.4 96V84.4h4.3c1 0 1.7.1 2.3.4.6.3 1 .8 1.4 1.3.3.6.4 1.2.4 2 0 .7-.1 1.4-.4 2-.4.5-.8.9-1.4 1.2-.7.3-1.4.4-2.3.4h-3.1V90h2.8c.5 0 1 0 1.3-.2.3-.2.6-.4.7-.7.2-.3.3-.6.3-1s-.1-.8-.3-1c-.1-.4-.4-.6-.7-.7a3 3 0 0 0-1.3-.3h-2V96h-2Zm6-5.3 2.9 5.3h-2.4l-2.8-5.3h2.3Zm8 5.5c-.9 0-1.6-.2-2.2-.6-.7-.3-1.2-.9-1.5-1.5-.3-.7-.5-1.5-.5-2.4 0-1 .2-1.7.5-2.4a3.9 3.9 0 0 1 3.6-2.1c.5 0 1 0 1.5.2l1.3.8c.4.4.7.8.9 1.4.2.5.3 1.2.3 2v.6h-7.2v-1.4h5.2c0-.4 0-.7-.2-1l-.7-.8a2 2 0 0 0-1-.2 2 2 0 0 0-1.2.3c-.3.2-.5.4-.7.8-.2.3-.3.6-.3 1v1.2c0 .6.1 1 .3 1.4.2.3.4.6.8.8.3.2.7.3 1.1.3.3 0 .6 0 .9-.2l.6-.3.4-.7 2 .3a3 3 0 0 1-.8 1.3c-.3.4-.7.7-1.3.9a5 5 0 0 1-1.8.3Zm8.2 0c-.6 0-1.1-.1-1.5-.3-.5-.2-.8-.5-1-1-.3-.3-.5-.8-.5-1.3s.1-1 .3-1.3l.7-.7 1.1-.5 1.2-.2a48.8 48.8 0 0 0 2-.3l.2-.5c0-.4-.1-.8-.4-1-.2-.2-.6-.4-1-.4a2 2 0 0 0-1.3.4c-.3.2-.5.4-.6.7l-1.9-.2a3 3 0 0 1 2-2.2c.5-.2 1.1-.2 1.7-.2l1.3.1 1.1.5c.4.2.6.5.8 1 .3.3.4.8.4 1.4V96h-2v-1.2a2.5 2.5 0 0 1-1.5 1.2l-1.1.2Zm.5-1.5c.4 0 .8-.1 1-.3.4-.1.6-.4.8-.6l.2-1v-1l-.3.2-.5.1a15.8 15.8 0 0 1-1 .2c-.4 0-.7 0-.9.2-.2 0-.4.2-.6.4a1 1 0 0 0-.2.6c0 .4.2.7.4.9.3.2.7.3 1 .3Zm9.4 1.5a3.3 3.3 0 0 1-3.2-2.1c-.3-.7-.4-1.5-.4-2.5s.1-1.7.4-2.4c.4-.7.8-1.2 1.3-1.5a3.3 3.3 0 0 1 3.1-.3l.8.6.5.7v-4.3h2.1V96h-2v-1.4h-.1l-.5.7a2.5 2.5 0 0 1-2 .9Zm.5-1.7c.5 0 .8-.2 1.2-.4.3-.2.5-.6.7-1l.2-1.5c0-.5 0-1-.2-1.4-.2-.5-.4-.8-.7-1-.3-.2-.7-.4-1.2-.4-.4 0-.8.2-1.1.4-.3.2-.5.6-.7 1-.2.4-.2.9-.2 1.4 0 .6 0 1 .2 1.5.2.4.4.8.7 1 .3.2.7.4 1.1.4Zm10.3 1.5v-8.7h2v1.5c.2-.5.5-1 1-1.2.4-.3.9-.4 1.5-.4a2.3 2.3 0 0 1 2.4 1.6c.2-.5.5-1 1-1.2a3 3 0 0 1 1.6-.4c.8 0 1.5.2 2 .7.5.5.7 1.3.7 2.2V96h-2v-5.5c0-.6-.2-1-.4-1.2-.3-.3-.7-.4-1.1-.4-.5 0-.9.1-1.2.5-.2.3-.4.7-.4 1.2V96h-2v-5.6c0-.5-.1-.8-.4-1.1-.3-.3-.6-.4-1-.4s-.6 0-.9.2l-.6.7a2 2 0 0 0-.2.9V96h-2Zm18.1.2c-.8 0-1.5-.2-2.2-.6-.6-.4-1-.9-1.4-1.6-.4-.6-.5-1.4-.5-2.3 0-1 .1-1.7.5-2.4.3-.7.8-1.2 1.4-1.6.7-.4 1.4-.5 2.2-.5.9 0 1.6.1 2.3.5.6.4 1 1 1.4 1.6.4.7.5 1.5.5 2.4 0 .9-.1 1.7-.5 2.3-.3.7-.8 1.2-1.4 1.6-.7.4-1.4.6-2.3.6Zm0-1.7c.5 0 .9-.1 1.2-.4.3-.2.6-.6.7-1 .2-.4.2-.9.2-1.4 0-.6 0-1-.2-1.5-.1-.4-.4-.8-.7-1-.3-.3-.7-.4-1.1-.4-.5 0-1 .1-1.2.4-.3.2-.6.6-.7 1a4.4 4.4 0 0 0 0 2.9c.1.4.4.8.7 1 .3.3.7.4 1.2.4Zm6 1.5v-8.7h2v1.4a2.2 2.2 0 0 1 2.2-1.6 4.8 4.8 0 0 1 .7.1v1.9h-.4l-.5-.1a2 2 0 0 0-1 .2 1.8 1.8 0 0 0-1 1.7V96h-2Zm9.8.2c-.9 0-1.6-.2-2.3-.6-.6-.3-1-.9-1.4-1.5-.4-.7-.5-1.5-.5-2.4 0-1 .1-1.7.5-2.4a3.9 3.9 0 0 1 3.6-2.1c.5 0 1 0 1.5.2l1.3.8c.4.4.7.8.9 1.4.2.5.3 1.2.3 2v.6h-7.2v-1.4h5.2c0-.4 0-.7-.2-1l-.7-.8a2 2 0 0 0-1-.2 2 2 0 0 0-1.2.3c-.3.2-.5.4-.7.8-.2.3-.3.6-.3 1v1.2c0 .6.1 1 .3 1.4.2.3.4.6.8.8.3.2.7.3 1.1.3.3 0 .6 0 .9-.2l.6-.3.4-.7 2 .3a3 3 0 0 1-.8 1.3c-.3.4-.7.7-1.3.9a5 5 0 0 1-1.8.3ZM109.2 99.2h82.6v1h-82.6v-1Z"/></g><defs><clipPath id="a"><path fill="#fff" d="M0 0h300v180H0z"/></clipPath><clipPath id="b"><rect width="300" height="180" fill="#fff" rx="12"/></clipPath><radialGradient id="c" cx="0" cy="0" r="1" gradientTransform="rotate(90 0 150) scale(150)" gradientUnits="userSpaceOnUse"><stop stop-opacity=".6"/><stop offset=".5" stop-opacity=".3"/><stop offset="1" stop-opacity=".1"/></radialGradient></defs></svg>
