<svg xmlns="http://www.w3.org/2000/svg" width="300" height="180" fill="none"><g clip-path="url(#a)"><g clip-path="url(#b)"><rect width="300" height="180" fill="#EFF4FF" rx="12"/><mask id="d" width="300" height="300" x="0" y="0" maskUnits="userSpaceOnUse" style="mask-type:alpha"><path fill="url(#c)" d="M0 0h300v300H0z"/></mask><g mask="url(#d)"><path stroke="#BFD4FE" d="m60.5 0-30 180m90-180-30 180m90-180-30 180m90-180-30 180m90-180-30 180M90.5 0l-30 180m90-180-30 180m90-180-30 180m90-180-30 180M0-.5l300 30M0 59.5l300 30m-300 30 300 30M0 29.5l300 30M0 89.5l300 30M30.5 0 .5 180m0-30.5 300 30"/></g></g><rect width="299" height="179" x=".5" y=".5" stroke="#DBE6FE" rx="11.5"/><g filter="url(#e)"><circle cx="150" cy="90" r="15" fill="#fff"/><circle cx="150" cy="90" r="15" stroke="#3D6EF6" stroke-width="2"/></g><g filter="url(#f)"><circle cx="90" cy="90" r="15" fill="#3D6EF6"/></g><g filter="url(#g)"><circle cx="210" cy="90" r="15" fill="#fff"/><circle cx="210" cy="90" r="15.5" stroke="#BFD4FE"/></g><path fill="#3D6EF6" d="M146.2 95v-1.7l3.8-3.6.9-.8.5-.8.2-.8c0-.3-.1-.6-.3-.8l-.5-.5c-.3-.2-.6-.2-1-.2-.2 0-.5 0-.8.2l-.6.6-.2.9h-2.1c0-.8.1-1.4.4-2 .4-.4.8-.8 1.4-1.1a4.7 4.7 0 0 1 4 0c.6.2 1 .6 1.4 1.1a3.2 3.2 0 0 1 .2 2.9c-.1.4-.4.8-.8 1.3l-1.8 1.8-1.5 1.5v.1h4.5V95h-7.7ZM210 95.1c-.8 0-1.5 0-2.2-.4-.6-.2-1-.6-1.4-1.1-.4-.5-.6-1-.6-1.7h2.4c0 .3 0 .5.2.7l.7.5.9.1 1-.1c.2-.2.4-.3.5-.6.2-.2.3-.4.3-.7 0-.3-.1-.6-.3-.8-.1-.2-.4-.4-.7-.5-.3-.2-.6-.2-1-.2h-1v-1.7h1c.3 0 .6 0 .9-.2.3-.1.5-.3.6-.5.2-.2.2-.5.2-.7a1.3 1.3 0 0 0-.7-1.3l-.8-.1-.9.1-.6.5-.2.7H206c0-.6.1-1.1.5-1.6.3-.5.8-.9 1.4-1.1a4.5 4.5 0 0 1 4 0c.5.2 1 .6 1.3 1 .3.5.5 1 .5 1.6 0 .6-.2 1.1-.6 1.5-.4.5-.9.7-1.5.8v.1c.8.1 1.4.4 1.8.8.5.5.7 1 .7 1.7s-.2 1.2-.6 1.7c-.3.5-.8.9-1.5 1.1-.6.3-1.3.4-2.1.4Z"/><path fill="#fff" d="M92 84v11h-2.3v-8.7h-.1L87 87.8v-2l2.7-1.7H92Z"/><path stroke="#3D6EF6" stroke-linecap="round" stroke-width="3" d="M111 90h18"/><path stroke="#BFD4FE" stroke-linecap="round" stroke-width="3" d="M171 90h18"/></g><defs><filter id="e" width="34" height="34" x="133" y="74" color-interpolation-filters="sRGB" filterUnits="userSpaceOnUse"><feFlood flood-opacity="0" result="BackgroundImageFix"/><feColorMatrix in="SourceAlpha" result="hardAlpha" values="0 0 0 0 0 0 0 0 0 0 0 0 0 0 0 0 0 0 127 0"/><feOffset dy="1"/><feGaussianBlur stdDeviation=".5"/><feComposite in2="hardAlpha" operator="out"/><feColorMatrix values="0 0 0 0 0.74902 0 0 0 0 0.831373 0 0 0 0 0.996078 0 0 0 0.3 0"/><feBlend in2="BackgroundImageFix" result="effect1_dropShadow_40_445"/><feBlend in="SourceGraphic" in2="effect1_dropShadow_40_445" result="shape"/></filter><filter id="f" width="32" height="32" x="74" y="75" color-interpolation-filters="sRGB" filterUnits="userSpaceOnUse"><feFlood flood-opacity="0" result="BackgroundImageFix"/><feColorMatrix in="SourceAlpha" result="hardAlpha" values="0 0 0 0 0 0 0 0 0 0 0 0 0 0 0 0 0 0 127 0"/><feOffset dy="1"/><feGaussianBlur stdDeviation=".5"/><feComposite in2="hardAlpha" operator="out"/><feColorMatrix values="0 0 0 0 0.74902 0 0 0 0 0.831373 0 0 0 0 0.996078 0 0 0 0.3 0"/><feBlend in2="BackgroundImageFix" result="effect1_dropShadow_40_445"/><feBlend in="SourceGraphic" in2="effect1_dropShadow_40_445" result="shape"/></filter><filter id="g" width="34" height="34" x="193" y="74" color-interpolation-filters="sRGB" filterUnits="userSpaceOnUse"><feFlood flood-opacity="0" result="BackgroundImageFix"/><feColorMatrix in="SourceAlpha" result="hardAlpha" values="0 0 0 0 0 0 0 0 0 0 0 0 0 0 0 0 0 0 127 0"/><feOffset dy="1"/><feGaussianBlur stdDeviation=".5"/><feComposite in2="hardAlpha" operator="out"/><feColorMatrix values="0 0 0 0 0.74902 0 0 0 0 0.831373 0 0 0 0 0.996078 0 0 0 0.3 0"/><feBlend in2="BackgroundImageFix" result="effect1_dropShadow_40_445"/><feBlend in="SourceGraphic" in2="effect1_dropShadow_40_445" result="shape"/></filter><clipPath id="a"><path fill="#fff" d="M0 0h300v180H0z"/></clipPath><clipPath id="b"><rect width="300" height="180" fill="#fff" rx="12"/></clipPath><radialGradient id="c" cx="0" cy="0" r="1" gradientTransform="rotate(90 0 150) scale(150)" gradientUnits="userSpaceOnUse"><stop stop-opacity=".6"/><stop offset=".5" stop-opacity=".3"/><stop offset="1" stop-opacity=".1"/></radialGradient></defs></svg>
