<svg xmlns="http://www.w3.org/2000/svg" width="300" height="180" fill="none"><g clip-path="url(#a)"><g clip-path="url(#b)"><rect width="300" height="180" fill="#EFF4FF" rx="12"/><mask id="d" width="300" height="300" x="0" y="0" maskUnits="userSpaceOnUse" style="mask-type:alpha"><path fill="url(#c)" d="M0 0h300v300H0z"/></mask></g><rect width="299" height="179" x=".5" y=".5" stroke="#DBE6FE" rx="11.5"/><mask id="f" width="300" height="180" x="0" y="0" maskUnits="userSpaceOnUse" style="mask-type:alpha"><path fill="url(#e)" d="M0 0h300v180H0z"/></mask><g fill="#DBE6FE" mask="url(#f)"><path d="M21 24h6v6h-6v-6ZM63 24h6v6h-6v-6ZM105 24h6v6h-6v-6ZM147 24h6v6h-6v-6ZM189 24h6v6h-6v-6ZM231 24h6v6h-6v-6ZM21 45h6v6h-6v-6ZM63 45h6v6h-6v-6ZM105 45h6v6h-6v-6ZM147 45h6v6h-6v-6ZM189 45h6v6h-6v-6ZM231 45h6v6h-6v-6ZM21 66h6v6h-6v-6ZM63 66h6v6h-6v-6ZM105 66h6v6h-6v-6ZM147 66h6v6h-6v-6ZM189 66h6v6h-6v-6ZM231 66h6v6h-6v-6ZM21 87h6v6h-6v-6ZM63 87h6v6h-6v-6ZM105 87h6v6h-6v-6ZM147 87h6v6h-6v-6ZM189 87h6v6h-6v-6ZM231 87h6v6h-6v-6ZM21 108h6v6h-6v-6ZM63 108h6v6h-6v-6ZM105 108h6v6h-6v-6ZM147 108h6v6h-6v-6ZM189 108h6v6h-6v-6ZM231 108h6v6h-6v-6ZM21 129h6v6h-6v-6ZM63 129h6v6h-6v-6ZM105 129h6v6h-6v-6ZM147 129h6v6h-6v-6ZM189 129h6v6h-6v-6ZM231 129h6v6h-6v-6ZM21 150h6v6h-6v-6ZM63 150h6v6h-6v-6ZM105 150h6v6h-6v-6ZM147 150h6v6h-6v-6ZM189 150h6v6h-6v-6ZM231 150h6v6h-6v-6ZM42 24h6v6h-6v-6ZM84 24h6v6h-6v-6ZM126 24h6v6h-6v-6ZM168 24h6v6h-6v-6ZM210 24h6v6h-6v-6ZM252 24h6v6h-6v-6ZM273 24h6v6h-6v-6ZM42 45h6v6h-6v-6ZM84 45h6v6h-6v-6ZM126 45h6v6h-6v-6ZM168 45h6v6h-6v-6ZM210 45h6v6h-6v-6ZM252 45h6v6h-6v-6ZM273 45h6v6h-6v-6ZM42 66h6v6h-6v-6ZM84 66h6v6h-6v-6ZM126 66h6v6h-6v-6ZM168 66h6v6h-6v-6ZM210 66h6v6h-6v-6ZM252 66h6v6h-6v-6ZM273 66h6v6h-6v-6ZM42 87h6v6h-6v-6ZM84 87h6v6h-6v-6ZM126 87h6v6h-6v-6ZM168 87h6v6h-6v-6ZM210 87h6v6h-6v-6ZM252 87h6v6h-6v-6ZM273 87h6v6h-6v-6ZM42 108h6v6h-6v-6ZM84 108h6v6h-6v-6ZM126 108h6v6h-6v-6ZM168 108h6v6h-6v-6ZM210 108h6v6h-6v-6ZM252 108h6v6h-6v-6ZM273 108h6v6h-6v-6ZM42 129h6v6h-6v-6ZM84 129h6v6h-6v-6ZM126 129h6v6h-6v-6ZM168 129h6v6h-6v-6ZM210 129h6v6h-6v-6ZM252 129h6v6h-6v-6ZM273 129h6v6h-6v-6ZM42 150h6v6h-6v-6ZM84 150h6v6h-6v-6ZM126 150h6v6h-6v-6ZM168 150h6v6h-6v-6ZM210 150h6v6h-6v-6ZM252 150h6v6h-6v-6ZM273 150h6v6h-6v-6Z"/></g></g><defs><radialGradient id="c" cx="0" cy="0" r="1" gradientTransform="rotate(90 0 150) scale(150)" gradientUnits="userSpaceOnUse"><stop stop-opacity=".6"/><stop offset=".5" stop-opacity=".3"/><stop offset="1" stop-opacity=".1"/></radialGradient><radialGradient id="e" cx="0" cy="0" r="1" gradientTransform="matrix(0 90 -150 0 150 90)" gradientUnits="userSpaceOnUse"><stop/><stop offset=".5" stop-opacity=".8"/><stop offset="1" stop-opacity=".1"/></radialGradient><clipPath id="a"><path fill="#fff" d="M0 0h300v180H0z"/></clipPath><clipPath id="b"><rect width="300" height="180" fill="#fff" rx="12"/></clipPath></defs></svg>
