<svg xmlns="http://www.w3.org/2000/svg" width="300" height="180" fill="none"><g clip-path="url(#a)"><g clip-path="url(#b)"><rect width="300" height="180" fill="#EFF4FF" rx="12"/><mask id="d" width="300" height="300" x="0" y="0" maskUnits="userSpaceOnUse" style="mask-type:alpha"><path fill="url(#c)" d="M0 0h300v300H0z"/></mask></g><rect width="299" height="179" x=".5" y=".5" stroke="#DBE6FE" rx="11.5"/><mask id="f" width="300" height="180" x="0" y="0" maskUnits="userSpaceOnUse" style="mask-type:alpha"><path fill="url(#e)" d="M0 0h300v180H0z"/></mask><g fill="#DBE6FE" mask="url(#f)"><path d="M27 27a3 3 0 1 1-6 0 3 3 0 0 1 6 0ZM90 27a3 3 0 1 1-6 0 3 3 0 0 1 6 0ZM153 27a3 3 0 1 1-6 0 3 3 0 0 1 6 0ZM216 27a3 3 0 1 1-6 0 3 3 0 0 1 6 0ZM48 27a3 3 0 1 1-6 0 3 3 0 0 1 6 0ZM111 27a3 3 0 1 1-6 0 3 3 0 0 1 6 0ZM174 27a3 3 0 1 1-6 0 3 3 0 0 1 6 0ZM237 27a3 3 0 1 1-6 0 3 3 0 0 1 6 0ZM69 27a3 3 0 1 1-6 0 3 3 0 0 1 6 0ZM132 27a3 3 0 1 1-6 0 3 3 0 0 1 6 0ZM195 27a3 3 0 1 1-6 0 3 3 0 0 1 6 0ZM258 27a3 3 0 1 1-6 0 3 3 0 0 1 6 0ZM279 27a3 3 0 1 1-6 0 3 3 0 0 1 6 0ZM27 69a3 3 0 1 1-6 0 3 3 0 0 1 6 0ZM90 69a3 3 0 1 1-6 0 3 3 0 0 1 6 0ZM153 69a3 3 0 1 1-6 0 3 3 0 0 1 6 0ZM216 69a3 3 0 1 1-6 0 3 3 0 0 1 6 0ZM48 69a3 3 0 1 1-6 0 3 3 0 0 1 6 0ZM111 69a3 3 0 1 1-6 0 3 3 0 0 1 6 0ZM174 69a3 3 0 1 1-6 0 3 3 0 0 1 6 0ZM237 69a3 3 0 1 1-6 0 3 3 0 0 1 6 0ZM69 69a3 3 0 1 1-6 0 3 3 0 0 1 6 0ZM132 69a3 3 0 1 1-6 0 3 3 0 0 1 6 0ZM195 69a3 3 0 1 1-6 0 3 3 0 0 1 6 0ZM258 69a3 3 0 1 1-6 0 3 3 0 0 1 6 0ZM279 69a3 3 0 1 1-6 0 3 3 0 0 1 6 0ZM27 111a3 3 0 1 1-6 0 3 3 0 0 1 6 0ZM90 111a3 3 0 1 1-6 0 3 3 0 0 1 6 0ZM153 111a3 3 0 1 1-6 0 3 3 0 0 1 6 0ZM216 111a3 3 0 1 1-6 0 3 3 0 0 1 6 0ZM48 111a3 3 0 1 1-6 0 3 3 0 0 1 6 0ZM111 111a3 3 0 1 1-6 0 3 3 0 0 1 6 0ZM174 111a3 3 0 1 1-6 0 3 3 0 0 1 6 0ZM237 111a3 3 0 1 1-6 0 3 3 0 0 1 6 0ZM69 111a3 3 0 1 1-6 0 3 3 0 0 1 6 0ZM132 111a3 3 0 1 1-6 0 3 3 0 0 1 6 0ZM195 111a3 3 0 1 1-6 0 3 3 0 0 1 6 0ZM258 111a3 3 0 1 1-6 0 3 3 0 0 1 6 0ZM279 111a3 3 0 1 1-6 0 3 3 0 0 1 6 0ZM27 48a3 3 0 1 1-6 0 3 3 0 0 1 6 0ZM90 48a3 3 0 1 1-6 0 3 3 0 0 1 6 0ZM153 48a3 3 0 1 1-6 0 3 3 0 0 1 6 0ZM216 48a3 3 0 1 1-6 0 3 3 0 0 1 6 0ZM48 48a3 3 0 1 1-6 0 3 3 0 0 1 6 0ZM111 48a3 3 0 1 1-6 0 3 3 0 0 1 6 0ZM174 48a3 3 0 1 1-6 0 3 3 0 0 1 6 0ZM237 48a3 3 0 1 1-6 0 3 3 0 0 1 6 0ZM69 48a3 3 0 1 1-6 0 3 3 0 0 1 6 0ZM132 48a3 3 0 1 1-6 0 3 3 0 0 1 6 0ZM195 48a3 3 0 1 1-6 0 3 3 0 0 1 6 0ZM258 48a3 3 0 1 1-6 0 3 3 0 0 1 6 0ZM279 48a3 3 0 1 1-6 0 3 3 0 0 1 6 0ZM27 90a3 3 0 1 1-6 0 3 3 0 0 1 6 0ZM90 90a3 3 0 1 1-6 0 3 3 0 0 1 6 0ZM153 90a3 3 0 1 1-6 0 3 3 0 0 1 6 0ZM216 90a3 3 0 1 1-6 0 3 3 0 0 1 6 0ZM48 90a3 3 0 1 1-6 0 3 3 0 0 1 6 0ZM111 90a3 3 0 1 1-6 0 3 3 0 0 1 6 0ZM174 90a3 3 0 1 1-6 0 3 3 0 0 1 6 0ZM237 90a3 3 0 1 1-6 0 3 3 0 0 1 6 0ZM69 90a3 3 0 1 1-6 0 3 3 0 0 1 6 0ZM132 90a3 3 0 1 1-6 0 3 3 0 0 1 6 0ZM195 90a3 3 0 1 1-6 0 3 3 0 0 1 6 0ZM258 90a3 3 0 1 1-6 0 3 3 0 0 1 6 0ZM279 90a3 3 0 1 1-6 0 3 3 0 0 1 6 0ZM27 132a3 3 0 1 1-6 0 3 3 0 0 1 6 0ZM90 132a3 3 0 1 1-6 0 3 3 0 0 1 6 0ZM153 132a3 3 0 1 1-6 0 3 3 0 0 1 6 0ZM216 132a3 3 0 1 1-6 0 3 3 0 0 1 6 0ZM48 132a3 3 0 1 1-6 0 3 3 0 0 1 6 0ZM111 132a3 3 0 1 1-6 0 3 3 0 0 1 6 0ZM174 132a3 3 0 1 1-6 0 3 3 0 0 1 6 0ZM237 132a3 3 0 1 1-6 0 3 3 0 0 1 6 0ZM69 132a3 3 0 1 1-6 0 3 3 0 0 1 6 0ZM132 132a3 3 0 1 1-6 0 3 3 0 0 1 6 0ZM195 132a3 3 0 1 1-6 0 3 3 0 0 1 6 0ZM258 132a3 3 0 1 1-6 0 3 3 0 0 1 6 0ZM279 132a3 3 0 1 1-6 0 3 3 0 0 1 6 0ZM27 153a3 3 0 1 1-6 0 3 3 0 0 1 6 0ZM90 153a3 3 0 1 1-6 0 3 3 0 0 1 6 0ZM153 153a3 3 0 1 1-6 0 3 3 0 0 1 6 0ZM216 153a3 3 0 1 1-6 0 3 3 0 0 1 6 0ZM48 153a3 3 0 1 1-6 0 3 3 0 0 1 6 0ZM111 153a3 3 0 1 1-6 0 3 3 0 0 1 6 0ZM174 153a3 3 0 1 1-6 0 3 3 0 0 1 6 0ZM237 153a3 3 0 1 1-6 0 3 3 0 0 1 6 0ZM69 153a3 3 0 1 1-6 0 3 3 0 0 1 6 0ZM132 153a3 3 0 1 1-6 0 3 3 0 0 1 6 0ZM195 153a3 3 0 1 1-6 0 3 3 0 0 1 6 0ZM258 153a3 3 0 1 1-6 0 3 3 0 0 1 6 0ZM279 153a3 3 0 1 1-6 0 3 3 0 0 1 6 0Z"/></g></g><defs><radialGradient id="c" cx="0" cy="0" r="1" gradientTransform="rotate(90 0 150) scale(150)" gradientUnits="userSpaceOnUse"><stop stop-opacity=".6"/><stop offset=".5" stop-opacity=".3"/><stop offset="1" stop-opacity=".1"/></radialGradient><radialGradient id="e" cx="0" cy="0" r="1" gradientTransform="matrix(0 90 -150 0 150 90)" gradientUnits="userSpaceOnUse"><stop/><stop offset=".5" stop-opacity=".8"/><stop offset="1" stop-opacity=".1"/></radialGradient><clipPath id="a"><path fill="#fff" d="M0 0h300v180H0z"/></clipPath><clipPath id="b"><rect width="300" height="180" fill="#fff" rx="12"/></clipPath></defs></svg>
