<svg xmlns="http://www.w3.org/2000/svg" width="300" height="180" fill="none"><g clip-path="url(#a)"><g clip-path="url(#b)"><rect width="300" height="180" fill="#EFF4FF" rx="12"/><mask id="d" width="300" height="300" x="0" y="0" maskUnits="userSpaceOnUse" style="mask-type:alpha"><path fill="url(#c)" d="M0 0h300v300H0z"/></mask><g mask="url(#d)"><path stroke="#BFD4FE" d="m60.5 0-30 180m90-180-30 180m90-180-30 180m90-180-30 180m90-180-30 180M90.5 0l-30 180m90-180-30 180m90-180-30 180m90-180-30 180M0-.5l300 30M0 59.5l300 30m-300 30 300 30M0 29.5l300 30M0 89.5l300 30M30.5 0 .5 180m0-30.5 300 30"/></g></g><rect width="299" height="179" x=".5" y=".5" stroke="#DBE6FE" rx="11.5"/><rect width="83" height="83" x="108.5" y="48.5" fill="#fff" stroke="#BFD4FE" stroke-width="4" rx="9"/><path stroke="url(#e)" stroke-linecap="round" stroke-width="4" d="M132 48.5h49.5a9 9 0 0 1 9 9V84"/></g><defs><clipPath id="a"><path fill="#fff" d="M0 0h300v180H0z"/></clipPath><clipPath id="b"><rect width="300" height="180" fill="#fff" rx="12"/></clipPath><radialGradient id="c" cx="0" cy="0" r="1" gradientTransform="rotate(90 0 150) scale(150)" gradientUnits="userSpaceOnUse"><stop stop-opacity=".6"/><stop offset=".5" stop-opacity=".3"/><stop offset="1" stop-opacity=".1"/></radialGradient><linearGradient id="e" x1="132" y1="48.5" x2="190.5" y2="84" gradientUnits="userSpaceOnUse"><stop stop-color="#3D6EF6" stop-opacity="0"/><stop offset="1" stop-color="#3D6EF6"/></linearGradient></defs></svg>
